<svg width="36" height="36" viewBox="0 0 36 36" fill="none" xmlns="http://www.w3.org/2000/svg">
<path fill-rule="evenodd" clip-rule="evenodd" d="M17.8 0.400024C8.08375 0.400024 0.200012 8.28376 0.200012 18C0.200012 27.7163 8.08375 35.6 17.8 35.6C27.4972 35.6 35.4 27.7163 35.4 18C35.4 8.28376 27.4972 0.400024 17.8 0.400024ZM29.4251 8.51282C31.5249 11.0707 32.7849 14.3349 32.823 17.8664C32.3267 17.771 27.3635 16.7592 22.3623 17.3892C22.2478 17.141 22.1523 16.8737 22.0378 16.6065C21.7323 15.8812 21.3888 15.1367 21.0451 14.4304C26.5809 12.1779 29.1006 8.93278 29.4251 8.51282ZM17.8 2.99612C21.6178 2.99612 25.1111 4.4278 27.7645 6.77573C27.4972 7.15751 25.2256 10.1927 19.8807 12.197C17.4182 7.6729 14.6886 3.96966 14.2686 3.39699C15.3948 3.12974 16.5784 2.99612 17.8 2.99612ZM11.4053 4.4087C11.8061 4.94319 14.4786 8.66553 16.9792 13.0941C9.95446 14.9649 3.75056 14.9267 3.08244 14.9267C4.05597 10.269 7.20565 6.39395 11.4053 4.4087ZM2.75793 18.0192C2.75793 17.8664 2.75793 17.7137 2.75793 17.561C3.40695 17.58 10.6989 17.6755 18.2009 15.4231C18.64 16.2629 19.0408 17.1219 19.4226 17.9809C19.2317 18.0382 19.0217 18.0955 18.8308 18.1527C11.0807 20.6533 6.9575 27.4872 6.61389 28.0599C4.22777 25.4065 2.75793 21.8751 2.75793 18.0192ZM17.8 33.0421C14.3258 33.0421 11.1189 31.8586 8.58005 29.8733C8.8473 29.3198 11.9015 23.4404 20.377 20.4816C20.4152 20.4625 20.4343 20.4625 20.4725 20.4435C22.5913 25.9219 23.4504 30.5223 23.6794 31.8395C21.8659 32.6221 19.8807 33.0421 17.8 33.0421ZM26.18 30.4651C26.0274 29.5488 25.2256 25.1584 23.2594 19.7562C27.9745 19.0117 32.0976 20.2335 32.6131 20.4053C31.9641 24.5857 29.5588 28.1935 26.18 30.4651Z" fill="black"/>
</svg>
