<svg width="36" height="36" viewBox="0 0 36 36" fill="none" xmlns="http://www.w3.org/2000/svg">
<g clip-path="url(#clip0_112_464)">
<path d="M35.2 18C35.2 8.27981 27.3202 0.400024 17.6 0.400024C7.87978 0.400024 0 8.27981 0 18C0 26.7846 6.43603 34.0659 14.85 35.3862V23.0875H10.3813V18H14.85V14.1225C14.85 9.71152 17.4776 7.27502 21.4978 7.27502C23.4228 7.27502 25.4375 7.61877 25.4375 7.61877V11.95H23.2183C21.032 11.95 20.35 13.3068 20.35 14.7V18H25.2313L24.4509 23.0875H20.35V35.3862C28.764 34.0659 35.2 26.7846 35.2 18Z" fill="black"/>
</g>
<defs>
<clipPath id="clip0_112_464">
<rect width="35.2" height="35.2" fill="white" transform="translate(0 0.400024)"/>
</clipPath>
</defs>
</svg>
