<svg width="36" height="36" viewBox="0 0 36 36" fill="none" xmlns="http://www.w3.org/2000/svg">
<g clip-path="url(#clip0_112_466)">
<path d="M18 3.5694C22.7025 3.5694 23.2594 3.59002 25.1088 3.67252C26.8275 3.74815 27.7557 4.0369 28.3744 4.27752C29.1925 4.59377 29.7838 4.97877 30.3957 5.59065C31.0144 6.2094 31.3925 6.79377 31.7088 7.6119C31.9494 8.23065 32.2382 9.16565 32.3138 10.8775C32.3963 12.7338 32.4169 13.2906 32.4169 17.9863C32.4169 22.6888 32.3963 23.2457 32.3138 25.095C32.2382 26.8138 31.9494 27.7419 31.7088 28.3606C31.3925 29.1788 31.0075 29.77 30.3957 30.3819C29.7769 31.0006 29.1925 31.3788 28.3744 31.695C27.7557 31.9356 26.8207 32.2244 25.1088 32.3C23.2525 32.3825 22.6957 32.4031 18 32.4031C13.2975 32.4031 12.7407 32.3825 10.8913 32.3C9.17253 32.2244 8.2444 31.9356 7.62565 31.695C6.80753 31.3788 6.21627 30.9938 5.6044 30.3819C4.98565 29.7631 4.60752 29.1788 4.29127 28.3606C4.05065 27.7419 3.7619 26.8069 3.68627 25.095C3.60377 23.2388 3.58315 22.6819 3.58315 17.9863C3.58315 13.2838 3.60377 12.7269 3.68627 10.8775C3.7619 9.15877 4.05065 8.23065 4.29127 7.6119C4.60752 6.79377 4.99252 6.20252 5.6044 5.59065C6.22315 4.9719 6.80753 4.59377 7.62565 4.27752C8.2444 4.0369 9.1794 3.74815 10.8913 3.67252C12.7407 3.59002 13.2975 3.5694 18 3.5694ZM18 0.400024C13.2219 0.400024 12.6238 0.420649 10.7469 0.503149C8.8769 0.585649 7.59128 0.888149 6.47752 1.32127C5.31565 1.77502 4.33253 2.37315 3.35627 3.35627C2.37315 4.33252 1.77502 5.31565 1.32127 6.47065C0.888149 7.59127 0.585649 8.87002 0.503149 10.74C0.420649 12.6238 0.400024 13.2219 0.400024 18C0.400024 22.7781 0.420649 23.3763 0.503149 25.2531C0.585649 27.1231 0.888149 28.4088 1.32127 29.5225C1.77502 30.6844 2.37315 31.6675 3.35627 32.6438C4.33253 33.62 5.31565 34.225 6.47065 34.6719C7.59128 35.105 8.87002 35.4075 10.74 35.49C12.6169 35.5725 13.215 35.5931 17.9932 35.5931C22.7713 35.5931 23.3694 35.5725 25.2463 35.49C27.1163 35.4075 28.4019 35.105 29.5157 34.6719C30.6707 34.225 31.6538 33.62 32.63 32.6438C33.6063 31.6675 34.2113 30.6844 34.6581 29.5294C35.0913 28.4088 35.3938 27.13 35.4763 25.26C35.5588 23.3832 35.5794 22.785 35.5794 18.0069C35.5794 13.2288 35.5588 12.6306 35.4763 10.7538C35.3938 8.88377 35.0913 7.59815 34.6581 6.4844C34.225 5.31565 33.6269 4.33252 32.6438 3.35627C31.6675 2.38002 30.6844 1.77502 29.5294 1.32815C28.4088 0.895024 27.13 0.592524 25.26 0.510024C23.3763 0.420649 22.7782 0.400024 18 0.400024Z" fill="black"/>
<path d="M18 8.95935C13.0087 8.95935 8.95935 13.0087 8.95935 18C8.95935 22.9912 13.0087 27.0406 18 27.0406C22.9912 27.0406 27.0406 22.9912 27.0406 18C27.0406 13.0087 22.9912 8.95935 18 8.95935ZM18 23.8643C14.7619 23.8643 12.1356 21.2381 12.1356 18C12.1356 14.7619 14.7619 12.1356 18 12.1356C21.2381 12.1356 23.8643 14.7619 23.8643 18C23.8643 21.2381 21.2381 23.8643 18 23.8643Z" fill="black"/>
<path d="M29.5087 8.60184C29.5087 9.77059 28.56 10.7125 27.3981 10.7125C26.2294 10.7125 25.2875 9.76372 25.2875 8.60184C25.2875 7.43309 26.2362 6.49121 27.3981 6.49121C28.56 6.49121 29.5087 7.43996 29.5087 8.60184Z" fill="black"/>
</g>
<defs>
<clipPath id="clip0_112_466">
<rect width="35.2" height="35.2" fill="white" transform="translate(0.400024 0.400024)"/>
</clipPath>
</defs>
</svg>
