<svg width="36" height="36" viewBox="0 0 36 36" fill="none" xmlns="http://www.w3.org/2000/svg">
<g clip-path="url(#clip0_112_471)">
<path d="M33.1944 0.400024H3.19873C1.76185 0.400024 0.599976 1.5344 0.599976 2.9369V33.0563C0.599976 34.4588 1.76185 35.6 3.19873 35.6H33.1944C34.6312 35.6 35.8 34.4588 35.8 33.0632V2.9369C35.8 1.5344 34.6312 0.400024 33.1944 0.400024ZM11.0431 30.3956H5.8181V13.5931H11.0431V30.3956ZM8.4306 11.3038C6.7531 11.3038 5.39873 9.9494 5.39873 8.27877C5.39873 6.60815 6.7531 5.25377 8.4306 5.25377C10.1012 5.25377 11.4556 6.60815 11.4556 8.27877C11.4556 9.94252 10.1012 11.3038 8.4306 11.3038ZM30.5956 30.3956H25.3775V22.2281C25.3775 20.2825 25.3431 17.7731 22.6618 17.7731C19.9462 17.7731 19.5337 19.8975 19.5337 22.0907V30.3956H14.3225V13.5931H19.3275V15.8894H19.3962C20.0906 14.5694 21.7956 13.1738 24.3325 13.1738C29.6194 13.1738 30.5956 16.6525 30.5956 21.1763V30.3956Z" fill="black"/>
</g>
<defs>
<clipPath id="clip0_112_471">
<rect width="35.2" height="35.2" fill="white" transform="translate(0.599976 0.400024)"/>
</clipPath>
</defs>
</svg>
