<svg width="469" height="394" viewBox="0 0 469 394" fill="none" xmlns="http://www.w3.org/2000/svg">
<rect x="113.715" y="30.6017" width="88.7013" height="88.7013" fill="black" stroke="black" stroke-width="2"/>
<rect x="290.366" y="30.6017" width="88.7013" height="88.7013" fill="black" stroke="black" stroke-width="2"/>
<rect x="202.416" y="30.6017" width="88.7013" height="361.571" fill="black" stroke="black" stroke-width="2"/>
<rect x="25.0133" y="30.6017" width="88.7013" height="88.7013" fill="black" stroke="black" stroke-width="2"/>
<rect x="379.067" y="30.6017" width="88.7013" height="88.7013" fill="black" stroke="black" stroke-width="2"/>
<rect x="90.7013" y="2" width="88.7013" height="88.7013" fill="white" stroke="black" stroke-width="3"/>
<rect x="267.352" y="2.00012" width="88.7013" height="88.7013" fill="white" stroke="black" stroke-width="3"/>
<rect x="179.403" y="2" width="88.7013" height="361.571" fill="white" stroke="black" stroke-width="3"/>
<rect x="2" y="2.00012" width="88.7013" height="88.7013" fill="white" stroke="black" stroke-width="3"/>
<path d="M44.1258 40.6477C44.1258 41.2917 43.9904 41.8657 43.7198 42.3697C43.4584 42.8643 43.0851 43.247 42.5998 43.5177C42.1238 43.7883 41.5638 43.9237 40.9198 43.9237C40.2664 43.9237 39.7018 43.7883 39.2258 43.5177C38.7498 43.2377 38.3811 42.8503 38.1198 42.3557C37.8678 41.861 37.7418 41.2917 37.7418 40.6477V34.1237H38.9598V40.6897C38.9598 41.4177 39.1278 41.9637 39.4638 42.3277C39.7998 42.6917 40.2851 42.8737 40.9198 42.8737C41.5544 42.8737 42.0398 42.6917 42.3758 42.3277C42.7211 41.9637 42.8938 41.4177 42.8938 40.6897V34.1237H44.1258V40.6477ZM47.2143 34.1237L49.3283 37.8337L51.4563 34.1237H52.7583L50.0283 38.5617L53.0943 43.7697H51.6943L49.3003 39.4157L46.8643 43.7697H45.5623L48.5863 38.6317L45.8143 34.1237H47.2143ZM22.1314 53.2377C22.4301 53.2377 22.7754 53.289 23.1674 53.3917L22.9994 55.8977H22.0474V54.3157H21.9774C20.8388 54.3157 20.0314 55.1277 19.5554 56.7517V59.8597H21.0534V60.7697H17.2174V59.8597H18.3794V54.3017H17.2174V53.3917H19.2614L19.4854 55.1417C19.7841 54.507 20.1388 54.031 20.5494 53.7137C20.9694 53.3963 21.4968 53.2377 22.1314 53.2377ZM26.48 57.4937C26.508 58.3057 26.718 58.917 27.11 59.3277C27.5113 59.7383 28.0153 59.9437 28.622 59.9437C28.986 59.9437 29.3173 59.8923 29.616 59.7897C29.924 59.6777 30.2506 59.5097 30.596 59.2857L31.142 60.0697C30.7966 60.3403 30.4 60.5503 29.952 60.6997C29.5133 60.849 29.07 60.9237 28.622 60.9237C27.558 60.9237 26.7273 60.5783 26.13 59.8877C25.542 59.1877 25.248 58.2543 25.248 57.0877C25.248 56.3503 25.3786 55.6923 25.64 55.1137C25.9013 54.5257 26.2746 54.0683 26.76 53.7417C27.2453 53.4057 27.81 53.2377 28.454 53.2377C29.3873 53.2377 30.12 53.5643 30.652 54.2177C31.1933 54.8617 31.464 55.7437 31.464 56.8637C31.464 57.0783 31.4546 57.2883 31.436 57.4937H26.48ZM28.468 54.2037C27.8986 54.2037 27.4366 54.409 27.082 54.8197C26.7273 55.221 26.5266 55.8137 26.48 56.5977H30.316C30.3066 55.823 30.1386 55.2303 29.812 54.8197C29.4853 54.409 29.0373 54.2037 28.468 54.2037ZM36.4565 59.9577C37.0165 59.9577 37.4598 59.8503 37.7865 59.6357C38.1132 59.421 38.2765 59.1363 38.2765 58.7817C38.2765 58.539 38.2345 58.343 38.1505 58.1937C38.0665 58.035 37.8985 57.895 37.6465 57.7737C37.3945 57.643 37.0118 57.5123 36.4985 57.3817C35.6398 57.167 35.0052 56.9103 34.5945 56.6117C34.1838 56.3037 33.9785 55.851 33.9785 55.2537C33.9785 54.6377 34.2352 54.1477 34.7485 53.7837C35.2618 53.4197 35.9385 53.2377 36.7785 53.2377C37.8052 53.2377 38.7012 53.5083 39.4665 54.0497L38.9345 54.8617C38.6265 54.647 38.3045 54.4837 37.9685 54.3717C37.6325 54.2503 37.2452 54.1897 36.8065 54.1897C35.7425 54.1897 35.2105 54.5117 35.2105 55.1557C35.2105 55.3797 35.2665 55.5617 35.3785 55.7017C35.4998 55.8417 35.6912 55.9677 35.9525 56.0797C36.2232 56.1823 36.6245 56.3083 37.1565 56.4577C37.9592 56.6723 38.5565 56.9477 38.9485 57.2837C39.3498 57.6103 39.5505 58.091 39.5505 58.7257C39.5505 59.463 39.2518 60.0137 38.6545 60.3777C38.0572 60.7417 37.3245 60.9237 36.4565 60.9237C35.2992 60.9237 34.3378 60.5923 33.5725 59.9297L34.2305 59.1597C34.5292 59.4023 34.8698 59.5983 35.2525 59.7477C35.6352 59.8877 36.0365 59.9577 36.4565 59.9577ZM43.269 57.4937C43.297 58.3057 43.507 58.917 43.899 59.3277C44.3004 59.7383 44.8044 59.9437 45.411 59.9437C45.775 59.9437 46.1064 59.8923 46.405 59.7897C46.713 59.6777 47.0397 59.5097 47.385 59.2857L47.931 60.0697C47.5857 60.3403 47.189 60.5503 46.741 60.6997C46.3024 60.849 45.859 60.9237 45.411 60.9237C44.347 60.9237 43.5164 60.5783 42.919 59.8877C42.331 59.1877 42.037 58.2543 42.037 57.0877C42.037 56.3503 42.1677 55.6923 42.429 55.1137C42.6904 54.5257 43.0637 54.0683 43.549 53.7417C44.0344 53.4057 44.599 53.2377 45.243 53.2377C46.1764 53.2377 46.909 53.5643 47.441 54.2177C47.9824 54.8617 48.253 55.7437 48.253 56.8637C48.253 57.0783 48.2437 57.2883 48.225 57.4937H43.269ZM45.257 54.2037C44.6877 54.2037 44.2257 54.409 43.871 54.8197C43.5164 55.221 43.3157 55.8137 43.269 56.5977H47.105C47.0957 55.823 46.9277 55.2303 46.601 54.8197C46.2744 54.409 45.8264 54.2037 45.257 54.2037ZM56.0176 59.1597C56.0176 59.449 56.0642 59.6637 56.1576 59.8037C56.2509 59.9343 56.4049 60.0323 56.6196 60.0977L56.3256 60.9377C55.6069 60.8443 55.1589 60.4943 54.9816 59.8877C54.7202 60.2237 54.3889 60.4803 53.9876 60.6577C53.5956 60.835 53.1569 60.9237 52.6716 60.9237C51.9342 60.9237 51.3509 60.7183 50.9216 60.3077C50.5016 59.897 50.2916 59.3463 50.2916 58.6557C50.2916 57.8997 50.5856 57.3163 51.1736 56.9057C51.7709 56.495 52.6249 56.2897 53.7356 56.2897H54.8276V55.6877C54.8276 55.165 54.6782 54.7917 54.3796 54.5677C54.0809 54.3343 53.6469 54.2177 53.0776 54.2177C52.5176 54.2177 51.8782 54.3437 51.1596 54.5957L50.8376 53.6997C51.7056 53.3917 52.5129 53.2377 53.2596 53.2377C54.1556 53.2377 54.8369 53.4477 55.3036 53.8677C55.7796 54.2877 56.0176 54.871 56.0176 55.6177V59.1597ZM52.9656 60.0417C53.3296 60.0417 53.6749 59.9483 54.0016 59.7617C54.3376 59.575 54.6129 59.3183 54.8276 58.9917V57.1017H53.7636C52.9796 57.1017 52.4149 57.2323 52.0696 57.4937C51.7242 57.755 51.5516 58.1377 51.5516 58.6417C51.5516 59.575 52.0229 60.0417 52.9656 60.0417ZM64.1041 53.2377C64.4028 53.2377 64.7481 53.289 65.1401 53.3917L64.9721 55.8977H64.0201V54.3157H63.9501C62.8114 54.3157 62.0041 55.1277 61.5281 56.7517V59.8597H63.0261V60.7697H59.1901V59.8597H60.3521V54.3017H59.1901V53.3917H61.2341L61.4581 55.1417C61.7568 54.507 62.1114 54.031 62.5221 53.7137C62.9421 53.3963 63.4694 53.2377 64.1041 53.2377ZM70.8606 59.9157C71.5046 59.9157 72.144 59.701 72.7786 59.2717L73.3386 60.0417C73.0306 60.3123 72.648 60.527 72.1906 60.6857C71.7333 60.8443 71.29 60.9237 70.8606 60.9237C69.7686 60.9237 68.9146 60.583 68.2986 59.9017C67.692 59.211 67.3886 58.2823 67.3886 57.1157C67.3886 56.3783 67.524 55.7157 67.7946 55.1277C68.0746 54.5397 68.476 54.0777 68.9986 53.7417C69.5213 53.4057 70.142 53.2377 70.8606 53.2377C71.8126 53.2377 72.634 53.527 73.3246 54.1057L72.7506 54.8757C72.1066 54.4463 71.472 54.2317 70.8466 54.2317C70.184 54.2317 69.652 54.479 69.2506 54.9737C68.8586 55.459 68.6626 56.173 68.6626 57.1157C68.6626 58.0583 68.8586 58.763 69.2506 59.2297C69.652 59.687 70.1886 59.9157 70.8606 59.9157ZM77.0852 54.4137C77.3745 54.0403 77.7292 53.751 78.1492 53.5457C78.5692 53.3403 79.0032 53.2377 79.4512 53.2377C80.8325 53.2377 81.5232 53.9657 81.5232 55.4217V60.7697H80.3472V55.4357C80.3472 54.997 80.2445 54.6797 80.0392 54.4837C79.8338 54.2783 79.5072 54.1757 79.0592 54.1757C78.6765 54.1757 78.3078 54.297 77.9532 54.5397C77.5985 54.7823 77.3092 55.067 77.0852 55.3937V60.7697H75.9092V50.4377L77.0852 50.3117V54.4137Z" fill="black"/>
<path d="M311.823 39.6477C311.823 40.2917 311.688 40.8657 311.417 41.3697C311.156 41.8643 310.782 42.247 310.297 42.5177C309.821 42.7883 309.261 42.9237 308.617 42.9237C307.964 42.9237 307.399 42.7883 306.923 42.5177C306.447 42.2377 306.078 41.8503 305.817 41.3557C305.565 40.861 305.439 40.2917 305.439 39.6477V33.1237H306.657V39.6897C306.657 40.4177 306.825 40.9637 307.161 41.3277C307.497 41.6917 307.982 41.8737 308.617 41.8737C309.252 41.8737 309.737 41.6917 310.073 41.3277C310.418 40.9637 310.591 40.4177 310.591 39.6897V33.1237H311.823V39.6477ZM319.784 34.1037H317.642V41.8037H319.784V42.7697H314.268V41.8037H316.41V34.1037H314.268V33.1237H319.784V34.1037ZM294.642 49.4237V59.7697H293.606L293.494 58.8037C293.223 59.177 292.911 59.457 292.556 59.6437C292.201 59.8303 291.819 59.9237 291.408 59.9237C290.475 59.9237 289.77 59.583 289.294 58.9017C288.827 58.2203 288.594 57.2823 288.594 56.0877C288.594 55.3503 288.711 54.6923 288.944 54.1137C289.177 53.5257 289.509 53.0683 289.938 52.7417C290.377 52.4057 290.89 52.2377 291.478 52.2377C292.29 52.2377 292.953 52.5317 293.466 53.1197V49.2837L294.642 49.4237ZM291.786 53.1897C291.17 53.1897 290.694 53.4323 290.358 53.9177C290.031 54.403 289.868 55.1263 289.868 56.0877C289.868 57.0397 290.017 57.763 290.316 58.2577C290.624 58.743 291.067 58.9857 291.646 58.9857C292.346 58.9857 292.953 58.5937 293.466 57.8097V54.1417C293.261 53.8337 293.013 53.6003 292.724 53.4417C292.435 53.2737 292.122 53.1897 291.786 53.1897ZM298.374 56.4937C298.402 57.3057 298.612 57.917 299.004 58.3277C299.406 58.7383 299.91 58.9437 300.516 58.9437C300.88 58.9437 301.212 58.8923 301.51 58.7897C301.818 58.6777 302.145 58.5097 302.49 58.2857L303.036 59.0697C302.691 59.3403 302.294 59.5503 301.846 59.6997C301.408 59.849 300.964 59.9237 300.516 59.9237C299.452 59.9237 298.622 59.5783 298.024 58.8877C297.436 58.1877 297.142 57.2543 297.142 56.0877C297.142 55.3503 297.273 54.6923 297.534 54.1137C297.796 53.5257 298.169 53.0683 298.654 52.7417C299.14 52.4057 299.704 52.2377 300.348 52.2377C301.282 52.2377 302.014 52.5643 302.546 53.2177C303.088 53.8617 303.358 54.7437 303.358 55.8637C303.358 56.0783 303.349 56.2883 303.33 56.4937H298.374ZM300.362 53.2037C299.793 53.2037 299.331 53.409 298.976 53.8197C298.622 54.221 298.421 54.8137 298.374 55.5977H302.21C302.201 54.823 302.033 54.2303 301.706 53.8197C301.38 53.409 300.932 53.2037 300.362 53.2037ZM308.351 58.9577C308.911 58.9577 309.354 58.8503 309.681 58.6357C310.008 58.421 310.171 58.1363 310.171 57.7817C310.171 57.539 310.129 57.343 310.045 57.1937C309.961 57.035 309.793 56.895 309.541 56.7737C309.289 56.643 308.906 56.5123 308.393 56.3817C307.534 56.167 306.9 55.9103 306.489 55.6117C306.078 55.3037 305.873 54.851 305.873 54.2537C305.873 53.6377 306.13 53.1477 306.643 52.7837C307.156 52.4197 307.833 52.2377 308.673 52.2377C309.7 52.2377 310.596 52.5083 311.361 53.0497L310.829 53.8617C310.521 53.647 310.199 53.4837 309.863 53.3717C309.527 53.2503 309.14 53.1897 308.701 53.1897C307.637 53.1897 307.105 53.5117 307.105 54.1557C307.105 54.3797 307.161 54.5617 307.273 54.7017C307.394 54.8417 307.586 54.9677 307.847 55.0797C308.118 55.1823 308.519 55.3083 309.051 55.4577C309.854 55.6723 310.451 55.9477 310.843 56.2837C311.244 56.6103 311.445 57.091 311.445 57.7257C311.445 58.463 311.146 59.0137 310.549 59.3777C309.952 59.7417 309.219 59.9237 308.351 59.9237C307.194 59.9237 306.232 59.5923 305.467 58.9297L306.125 58.1597C306.424 58.4023 306.764 58.5983 307.147 58.7477C307.53 58.8877 307.931 58.9577 308.351 58.9577ZM317.026 48.9477C317.287 48.9477 317.497 49.027 317.656 49.1857C317.814 49.335 317.894 49.531 317.894 49.7737C317.894 50.0163 317.814 50.217 317.656 50.3757C317.497 50.525 317.287 50.5997 317.026 50.5997C316.774 50.5997 316.568 50.525 316.41 50.3757C316.26 50.217 316.186 50.0163 316.186 49.7737C316.186 49.531 316.26 49.335 316.41 49.1857C316.568 49.027 316.774 48.9477 317.026 48.9477ZM317.964 58.8317H320.036V59.7697H314.52V58.8317H316.788V53.3297H314.59V52.3917H317.964V58.8317ZM328.976 52.7277C328.696 52.821 328.393 52.8817 328.066 52.9097C327.739 52.9283 327.324 52.9377 326.82 52.9377C327.679 53.3297 328.108 53.9503 328.108 54.7997C328.108 55.5463 327.861 56.153 327.366 56.6197C326.871 57.077 326.195 57.3057 325.336 57.3057C324.897 57.3057 324.529 57.2543 324.23 57.1517C324.118 57.2357 324.025 57.343 323.95 57.4737C323.885 57.6043 323.852 57.735 323.852 57.8657C323.852 58.2857 324.179 58.4957 324.832 58.4957H326.162C326.647 58.4957 327.086 58.5843 327.478 58.7617C327.879 58.9297 328.192 59.1677 328.416 59.4757C328.649 59.7837 328.766 60.1243 328.766 60.4977C328.766 61.2163 328.458 61.767 327.842 62.1497C327.235 62.5417 326.372 62.7377 325.252 62.7377C324.113 62.7377 323.311 62.5603 322.844 62.2057C322.377 61.851 322.144 61.2863 322.144 60.5117H323.208C323.208 60.8197 323.264 61.0623 323.376 61.2397C323.497 61.4263 323.703 61.5617 323.992 61.6457C324.291 61.739 324.711 61.7857 325.252 61.7857C326.045 61.7857 326.629 61.683 327.002 61.4777C327.385 61.2723 327.576 60.969 327.576 60.5677C327.576 60.2317 327.422 59.9703 327.114 59.7837C326.806 59.6063 326.409 59.5177 325.924 59.5177H324.608C324.001 59.5177 323.539 59.387 323.222 59.1257C322.905 58.855 322.746 58.519 322.746 58.1177C322.746 57.8843 322.816 57.6557 322.956 57.4317C323.096 57.1983 323.297 56.9977 323.558 56.8297C323.138 56.615 322.825 56.3443 322.62 56.0177C322.424 55.6817 322.326 55.2757 322.326 54.7997C322.326 54.305 322.447 53.8663 322.69 53.4837C322.942 53.0917 323.287 52.7883 323.726 52.5737C324.174 52.3497 324.687 52.2377 325.266 52.2377C326.106 52.2377 326.745 52.191 327.184 52.0977C327.623 52.0043 328.103 51.8457 328.626 51.6217L328.976 52.7277ZM325.252 53.1057C324.683 53.1057 324.253 53.2597 323.964 53.5677C323.675 53.8663 323.53 54.277 323.53 54.7997C323.53 55.3223 323.675 55.7423 323.964 56.0597C324.263 56.3677 324.701 56.5217 325.28 56.5217C325.803 56.5217 326.199 56.3723 326.47 56.0737C326.75 55.7657 326.89 55.3363 326.89 54.7857C326.89 53.6657 326.344 53.1057 325.252 53.1057ZM331.015 52.3917H332.023L332.121 53.4277C332.41 53.0543 332.774 52.765 333.213 52.5597C333.661 52.345 334.109 52.2377 334.557 52.2377C335.938 52.2377 336.629 52.9657 336.629 54.4217V59.7697H335.453V55.2897C335.453 54.739 335.42 54.319 335.355 54.0297C335.299 53.7403 335.182 53.5257 335.005 53.3857C334.827 53.2457 334.557 53.1757 334.193 53.1757C333.791 53.1757 333.413 53.297 333.059 53.5397C332.704 53.7823 332.415 54.0717 332.191 54.4077V59.7697H331.015V52.3917Z" fill="black"/>
<path d="M202.514 43.7697H201.156L198.482 36.3917H199.742L201.87 42.7057L203.97 36.3917H205.202L202.514 43.7697ZM210.236 32.9477C210.498 32.9477 210.708 33.027 210.866 33.1857C211.025 33.335 211.104 33.531 211.104 33.7737C211.104 34.0163 211.025 34.217 210.866 34.3757C210.708 34.525 210.498 34.5997 210.236 34.5997C209.984 34.5997 209.779 34.525 209.62 34.3757C209.471 34.217 209.396 34.0163 209.396 33.7737C209.396 33.531 209.471 33.335 209.62 33.1857C209.779 33.027 209.984 32.9477 210.236 32.9477ZM211.174 42.8317H213.246V43.7697H207.73V42.8317H209.998V37.3297H207.8V36.3917H211.174V42.8317ZM218.351 42.9577C218.911 42.9577 219.354 42.8503 219.681 42.6357C220.008 42.421 220.171 42.1363 220.171 41.7817C220.171 41.539 220.129 41.343 220.045 41.1937C219.961 41.035 219.793 40.895 219.541 40.7737C219.289 40.643 218.906 40.5123 218.393 40.3817C217.534 40.167 216.9 39.9103 216.489 39.6117C216.078 39.3037 215.873 38.851 215.873 38.2537C215.873 37.6377 216.13 37.1477 216.643 36.7837C217.156 36.4197 217.833 36.2377 218.673 36.2377C219.7 36.2377 220.596 36.5083 221.361 37.0497L220.829 37.8617C220.521 37.647 220.199 37.4837 219.863 37.3717C219.527 37.2503 219.14 37.1897 218.701 37.1897C217.637 37.1897 217.105 37.5117 217.105 38.1557C217.105 38.3797 217.161 38.5617 217.273 38.7017C217.394 38.8417 217.586 38.9677 217.847 39.0797C218.118 39.1823 218.519 39.3083 219.051 39.4577C219.854 39.6723 220.451 39.9477 220.843 40.2837C221.244 40.6103 221.445 41.091 221.445 41.7257C221.445 42.463 221.146 43.0137 220.549 43.3777C219.952 43.7417 219.219 43.9237 218.351 43.9237C217.194 43.9237 216.232 43.5923 215.467 42.9297L216.125 42.1597C216.424 42.4023 216.764 42.5983 217.147 42.7477C217.53 42.8877 217.931 42.9577 218.351 42.9577ZM225.402 41.6277C225.402 42.1037 225.5 42.4537 225.696 42.6777C225.901 42.8923 226.218 42.9997 226.648 42.9997C227.04 42.9997 227.418 42.8877 227.782 42.6637C228.146 42.4397 228.435 42.1597 228.65 41.8237V36.3917H229.826V43.7697H228.818L228.72 42.7757C228.43 43.1397 228.071 43.4243 227.642 43.6297C227.222 43.8257 226.792 43.9237 226.354 43.9237C225.654 43.9237 225.122 43.737 224.758 43.3637C224.403 42.9903 224.226 42.4537 224.226 41.7537V36.3917H225.402V41.6277ZM237.912 42.1597C237.912 42.449 237.959 42.6637 238.052 42.8037C238.145 42.9343 238.299 43.0323 238.514 43.0977L238.22 43.9377C237.501 43.8443 237.053 43.4943 236.876 42.8877C236.615 43.2237 236.283 43.4803 235.882 43.6577C235.49 43.835 235.051 43.9237 234.566 43.9237C233.829 43.9237 233.245 43.7183 232.816 43.3077C232.396 42.897 232.186 42.3463 232.186 41.6557C232.186 40.8997 232.48 40.3163 233.068 39.9057C233.665 39.495 234.519 39.2897 235.63 39.2897H236.722V38.6877C236.722 38.165 236.573 37.7917 236.274 37.5677C235.975 37.3343 235.541 37.2177 234.972 37.2177C234.412 37.2177 233.773 37.3437 233.054 37.5957L232.732 36.6997C233.6 36.3917 234.407 36.2377 235.154 36.2377C236.05 36.2377 236.731 36.4477 237.198 36.8677C237.674 37.2877 237.912 37.871 237.912 38.6177V42.1597ZM234.86 43.0417C235.224 43.0417 235.569 42.9483 235.896 42.7617C236.232 42.575 236.507 42.3183 236.722 41.9917V40.1017H235.658C234.874 40.1017 234.309 40.2323 233.964 40.4937C233.619 40.755 233.446 41.1377 233.446 41.6417C233.446 42.575 233.917 43.0417 234.86 43.0417ZM243.899 41.9497C243.899 42.6123 244.305 42.9437 245.117 42.9437C245.499 42.9437 245.91 42.8597 246.349 42.6917L246.657 43.5457C246.19 43.7977 245.607 43.9237 244.907 43.9237C244.244 43.9237 243.712 43.7417 243.311 43.3777C242.919 43.0137 242.723 42.519 242.723 41.8937V34.3617H240.455V33.4237H243.899V41.9497ZM204.642 50.4237V60.7697H203.606L203.494 59.8037C203.223 60.177 202.911 60.457 202.556 60.6437C202.201 60.8303 201.819 60.9237 201.408 60.9237C200.475 60.9237 199.77 60.583 199.294 59.9017C198.827 59.2203 198.594 58.2823 198.594 57.0877C198.594 56.3503 198.711 55.6923 198.944 55.1137C199.177 54.5257 199.509 54.0683 199.938 53.7417C200.377 53.4057 200.89 53.2377 201.478 53.2377C202.29 53.2377 202.953 53.5317 203.466 54.1197V50.2837L204.642 50.4237ZM201.786 54.1897C201.17 54.1897 200.694 54.4323 200.358 54.9177C200.031 55.403 199.868 56.1263 199.868 57.0877C199.868 58.0397 200.017 58.763 200.316 59.2577C200.624 59.743 201.067 59.9857 201.646 59.9857C202.346 59.9857 202.953 59.5937 203.466 58.8097V55.1417C203.261 54.8337 203.013 54.6003 202.724 54.4417C202.435 54.2737 202.122 54.1897 201.786 54.1897ZM208.374 57.4937C208.402 58.3057 208.612 58.917 209.004 59.3277C209.406 59.7383 209.91 59.9437 210.516 59.9437C210.88 59.9437 211.212 59.8923 211.51 59.7897C211.818 59.6777 212.145 59.5097 212.49 59.2857L213.036 60.0697C212.691 60.3403 212.294 60.5503 211.846 60.6997C211.408 60.849 210.964 60.9237 210.516 60.9237C209.452 60.9237 208.622 60.5783 208.024 59.8877C207.436 59.1877 207.142 58.2543 207.142 57.0877C207.142 56.3503 207.273 55.6923 207.534 55.1137C207.796 54.5257 208.169 54.0683 208.654 53.7417C209.14 53.4057 209.704 53.2377 210.348 53.2377C211.282 53.2377 212.014 53.5643 212.546 54.2177C213.088 54.8617 213.358 55.7437 213.358 56.8637C213.358 57.0783 213.349 57.2883 213.33 57.4937H208.374ZM210.362 54.2037C209.793 54.2037 209.331 54.409 208.976 54.8197C208.622 55.221 208.421 55.8137 208.374 56.5977H212.21C212.201 55.823 212.033 55.2303 211.706 54.8197C211.38 54.409 210.932 54.2037 210.362 54.2037ZM218.351 59.9577C218.911 59.9577 219.354 59.8503 219.681 59.6357C220.008 59.421 220.171 59.1363 220.171 58.7817C220.171 58.539 220.129 58.343 220.045 58.1937C219.961 58.035 219.793 57.895 219.541 57.7737C219.289 57.643 218.906 57.5123 218.393 57.3817C217.534 57.167 216.9 56.9103 216.489 56.6117C216.078 56.3037 215.873 55.851 215.873 55.2537C215.873 54.6377 216.13 54.1477 216.643 53.7837C217.156 53.4197 217.833 53.2377 218.673 53.2377C219.7 53.2377 220.596 53.5083 221.361 54.0497L220.829 54.8617C220.521 54.647 220.199 54.4837 219.863 54.3717C219.527 54.2503 219.14 54.1897 218.701 54.1897C217.637 54.1897 217.105 54.5117 217.105 55.1557C217.105 55.3797 217.161 55.5617 217.273 55.7017C217.394 55.8417 217.586 55.9677 217.847 56.0797C218.118 56.1823 218.519 56.3083 219.051 56.4577C219.854 56.6723 220.451 56.9477 220.843 57.2837C221.244 57.6103 221.445 58.091 221.445 58.7257C221.445 59.463 221.146 60.0137 220.549 60.3777C219.952 60.7417 219.219 60.9237 218.351 60.9237C217.194 60.9237 216.232 60.5923 215.467 59.9297L216.125 59.1597C216.424 59.4023 216.764 59.5983 217.147 59.7477C217.53 59.8877 217.931 59.9577 218.351 59.9577ZM227.026 49.9477C227.287 49.9477 227.497 50.027 227.656 50.1857C227.814 50.335 227.894 50.531 227.894 50.7737C227.894 51.0163 227.814 51.217 227.656 51.3757C227.497 51.525 227.287 51.5997 227.026 51.5997C226.774 51.5997 226.568 51.525 226.41 51.3757C226.26 51.217 226.186 51.0163 226.186 50.7737C226.186 50.531 226.26 50.335 226.41 50.1857C226.568 50.027 226.774 49.9477 227.026 49.9477ZM227.964 59.8317H230.036V60.7697H224.52V59.8317H226.788V54.3297H224.59V53.3917H227.964V59.8317ZM238.976 53.7277C238.696 53.821 238.393 53.8817 238.066 53.9097C237.739 53.9283 237.324 53.9377 236.82 53.9377C237.679 54.3297 238.108 54.9503 238.108 55.7997C238.108 56.5463 237.861 57.153 237.366 57.6197C236.871 58.077 236.195 58.3057 235.336 58.3057C234.897 58.3057 234.529 58.2543 234.23 58.1517C234.118 58.2357 234.025 58.343 233.95 58.4737C233.885 58.6043 233.852 58.735 233.852 58.8657C233.852 59.2857 234.179 59.4957 234.832 59.4957H236.162C236.647 59.4957 237.086 59.5843 237.478 59.7617C237.879 59.9297 238.192 60.1677 238.416 60.4757C238.649 60.7837 238.766 61.1243 238.766 61.4977C238.766 62.2163 238.458 62.767 237.842 63.1497C237.235 63.5417 236.372 63.7377 235.252 63.7377C234.113 63.7377 233.311 63.5603 232.844 63.2057C232.377 62.851 232.144 62.2863 232.144 61.5117H233.208C233.208 61.8197 233.264 62.0623 233.376 62.2397C233.497 62.4263 233.703 62.5617 233.992 62.6457C234.291 62.739 234.711 62.7857 235.252 62.7857C236.045 62.7857 236.629 62.683 237.002 62.4777C237.385 62.2723 237.576 61.969 237.576 61.5677C237.576 61.2317 237.422 60.9703 237.114 60.7837C236.806 60.6063 236.409 60.5177 235.924 60.5177H234.608C234.001 60.5177 233.539 60.387 233.222 60.1257C232.905 59.855 232.746 59.519 232.746 59.1177C232.746 58.8843 232.816 58.6557 232.956 58.4317C233.096 58.1983 233.297 57.9977 233.558 57.8297C233.138 57.615 232.825 57.3443 232.62 57.0177C232.424 56.6817 232.326 56.2757 232.326 55.7997C232.326 55.305 232.447 54.8663 232.69 54.4837C232.942 54.0917 233.287 53.7883 233.726 53.5737C234.174 53.3497 234.687 53.2377 235.266 53.2377C236.106 53.2377 236.745 53.191 237.184 53.0977C237.623 53.0043 238.103 52.8457 238.626 52.6217L238.976 53.7277ZM235.252 54.1057C234.683 54.1057 234.253 54.2597 233.964 54.5677C233.675 54.8663 233.53 55.277 233.53 55.7997C233.53 56.3223 233.675 56.7423 233.964 57.0597C234.263 57.3677 234.701 57.5217 235.28 57.5217C235.803 57.5217 236.199 57.3723 236.47 57.0737C236.75 56.7657 236.89 56.3363 236.89 55.7857C236.89 54.6657 236.344 54.1057 235.252 54.1057ZM241.015 53.3917H242.023L242.121 54.4277C242.41 54.0543 242.774 53.765 243.213 53.5597C243.661 53.345 244.109 53.2377 244.557 53.2377C245.938 53.2377 246.629 53.9657 246.629 55.4217V60.7697H245.453V56.2897C245.453 55.739 245.42 55.319 245.355 55.0297C245.299 54.7403 245.182 54.5257 245.005 54.3857C244.827 54.2457 244.557 54.1757 244.193 54.1757C243.791 54.1757 243.413 54.297 243.059 54.5397C242.704 54.7823 242.415 55.0717 242.191 55.4077V60.7697H241.015V53.3917Z" fill="black"/>
<path d="M213.278 314.898C213.278 316.727 212.858 317.996 212.018 318.706C211.178 319.415 210.142 319.77 208.91 319.77H206.698V310.124H208.756C210.11 310.124 211.202 310.464 212.032 311.146C212.863 311.827 213.278 313.078 213.278 314.898ZM211.976 314.898C211.976 313.852 211.832 313.054 211.542 312.504C211.262 311.944 210.912 311.575 210.492 311.398C210.072 311.211 209.592 311.118 209.05 311.118H207.916V318.79H209.064C209.895 318.79 210.586 318.505 211.136 317.936C211.696 317.357 211.976 316.344 211.976 314.898ZM216.269 316.494C216.297 317.306 216.507 317.917 216.899 318.328C217.3 318.738 217.804 318.944 218.411 318.944C218.775 318.944 219.106 318.892 219.405 318.79C219.713 318.678 220.04 318.51 220.385 318.286L220.931 319.07C220.586 319.34 220.189 319.55 219.741 319.7C219.302 319.849 218.859 319.924 218.411 319.924C217.347 319.924 216.516 319.578 215.919 318.888C215.331 318.188 215.037 317.254 215.037 316.088C215.037 315.35 215.168 314.692 215.429 314.114C215.69 313.526 216.064 313.068 216.549 312.742C217.034 312.406 217.599 312.238 218.243 312.238C219.176 312.238 219.909 312.564 220.441 313.218C220.982 313.862 221.253 314.744 221.253 315.864C221.253 316.078 221.244 316.288 221.225 316.494H216.269ZM218.257 313.204C217.688 313.204 217.226 313.409 216.871 313.82C216.516 314.221 216.316 314.814 216.269 315.598H220.105C220.096 314.823 219.928 314.23 219.601 313.82C219.274 313.409 218.826 313.204 218.257 313.204ZM224.664 316.494C224.692 317.306 224.902 317.917 225.294 318.328C225.695 318.738 226.199 318.944 226.806 318.944C227.17 318.944 227.501 318.892 227.8 318.79C228.108 318.678 228.434 318.51 228.78 318.286L229.326 319.07C228.98 319.34 228.584 319.55 228.136 319.7C227.697 319.849 227.254 319.924 226.806 319.924C225.742 319.924 224.911 319.578 224.314 318.888C223.726 318.188 223.432 317.254 223.432 316.088C223.432 315.35 223.562 314.692 223.824 314.114C224.085 313.526 224.458 313.068 224.944 312.742C225.429 312.406 225.994 312.238 226.638 312.238C227.571 312.238 228.304 312.564 228.836 313.218C229.377 313.862 229.648 314.744 229.648 315.864C229.648 316.078 229.638 316.288 229.62 316.494H224.664ZM226.652 313.204C226.082 313.204 225.62 313.409 225.266 313.82C224.911 314.221 224.71 314.814 224.664 315.598H228.5C228.49 314.823 228.322 314.23 227.996 313.82C227.669 313.409 227.221 313.204 226.652 313.204ZM235.424 312.238C237.207 312.238 238.098 313.516 238.098 316.074C238.098 317.24 237.855 318.174 237.37 318.874C236.885 319.574 236.18 319.924 235.256 319.924C234.453 319.924 233.8 319.644 233.296 319.084V322.598L232.12 322.738V312.392H233.128L233.226 313.428C233.497 313.045 233.819 312.751 234.192 312.546C234.575 312.34 234.985 312.238 235.424 312.238ZM235.144 313.19C234.771 313.19 234.425 313.302 234.108 313.526C233.8 313.75 233.529 314.03 233.296 314.366V318.02C233.492 318.309 233.735 318.538 234.024 318.706C234.323 318.864 234.645 318.944 234.99 318.944C235.606 318.944 236.063 318.71 236.362 318.244C236.67 317.768 236.824 317.044 236.824 316.074C236.824 315.103 236.689 314.38 236.418 313.904C236.147 313.428 235.723 313.19 235.144 313.19ZM186.02 336.77V327.124H187.238V336.77H186.02ZM191.088 327.124H192.502L188.736 331.548L192.768 336.77H191.242L187.308 331.618L191.088 327.124ZM194.345 329.392H195.353L195.451 330.428C195.74 330.054 196.104 329.765 196.543 329.56C196.991 329.345 197.439 329.238 197.887 329.238C199.268 329.238 199.959 329.966 199.959 331.422V336.77H198.783V332.29C198.783 331.739 198.75 331.319 198.685 331.03C198.629 330.74 198.512 330.526 198.335 330.386C198.157 330.246 197.887 330.176 197.523 330.176C197.121 330.176 196.743 330.297 196.389 330.54C196.034 330.782 195.745 331.072 195.521 331.408V336.77H194.345V329.392ZM205.553 329.238C206.571 329.238 207.35 329.583 207.891 330.274C208.442 330.955 208.717 331.888 208.717 333.074C208.717 334.231 208.437 335.164 207.877 335.874C207.327 336.574 206.547 336.924 205.539 336.924C204.522 336.924 203.738 336.583 203.187 335.902C202.637 335.211 202.361 334.273 202.361 333.088C202.361 331.921 202.637 330.988 203.187 330.288C203.747 329.588 204.536 329.238 205.553 329.238ZM205.553 330.204C204.909 330.204 204.429 330.442 204.111 330.918C203.794 331.394 203.635 332.117 203.635 333.088C203.635 334.058 203.789 334.782 204.097 335.258C204.415 335.724 204.895 335.958 205.539 335.958C206.183 335.958 206.659 335.724 206.967 335.258C207.285 334.782 207.443 334.054 207.443 333.074C207.443 332.103 207.285 331.384 206.967 330.918C206.659 330.442 206.188 330.204 205.553 330.204ZM214.942 336.77L213.976 331.366L212.94 336.77H211.316L209.986 329.392H211.176L212.128 336.042L213.304 330.33H214.69L215.796 336.042L216.748 329.392H217.882L216.608 336.77H214.942ZM222.412 334.95C222.412 335.612 222.818 335.944 223.63 335.944C224.013 335.944 224.424 335.86 224.862 335.692L225.17 336.546C224.704 336.798 224.12 336.924 223.42 336.924C222.758 336.924 222.226 336.742 221.824 336.378C221.432 336.014 221.236 335.519 221.236 334.894V327.362H218.968V326.424H222.412V334.95ZM228.861 333.494C228.889 334.306 229.099 334.917 229.491 335.328C229.892 335.738 230.396 335.944 231.003 335.944C231.367 335.944 231.698 335.892 231.997 335.79C232.305 335.678 232.631 335.51 232.977 335.286L233.523 336.07C233.177 336.34 232.781 336.55 232.333 336.7C231.894 336.849 231.451 336.924 231.003 336.924C229.939 336.924 229.108 336.578 228.511 335.888C227.923 335.188 227.629 334.254 227.629 333.088C227.629 332.35 227.759 331.692 228.021 331.114C228.282 330.526 228.655 330.068 229.141 329.742C229.626 329.406 230.191 329.238 230.835 329.238C231.768 329.238 232.501 329.564 233.033 330.218C233.574 330.862 233.845 331.744 233.845 332.864C233.845 333.078 233.835 333.288 233.817 333.494H228.861ZM230.849 330.204C230.279 330.204 229.817 330.409 229.463 330.82C229.108 331.221 228.907 331.814 228.861 332.598H232.697C232.687 331.823 232.519 331.23 232.193 330.82C231.866 330.409 231.418 330.204 230.849 330.204ZM241.917 326.424V336.77H240.881L240.769 335.804C240.499 336.177 240.186 336.457 239.831 336.644C239.477 336.83 239.094 336.924 238.683 336.924C237.75 336.924 237.045 336.583 236.569 335.902C236.103 335.22 235.869 334.282 235.869 333.088C235.869 332.35 235.986 331.692 236.219 331.114C236.453 330.526 236.784 330.068 237.213 329.742C237.652 329.406 238.165 329.238 238.753 329.238C239.565 329.238 240.228 329.532 240.741 330.12V326.284L241.917 326.424ZM239.061 330.19C238.445 330.19 237.969 330.432 237.633 330.918C237.307 331.403 237.143 332.126 237.143 333.088C237.143 334.04 237.293 334.763 237.591 335.258C237.899 335.743 238.343 335.986 238.921 335.986C239.621 335.986 240.228 335.594 240.741 334.81V331.142C240.536 330.834 240.289 330.6 239.999 330.442C239.71 330.274 239.397 330.19 239.061 330.19ZM251.068 329.728C250.788 329.821 250.485 329.882 250.158 329.91C249.831 329.928 249.416 329.938 248.912 329.938C249.771 330.33 250.2 330.95 250.2 331.8C250.2 332.546 249.953 333.153 249.458 333.62C248.963 334.077 248.287 334.306 247.428 334.306C246.989 334.306 246.621 334.254 246.322 334.152C246.21 334.236 246.117 334.343 246.042 334.474C245.977 334.604 245.944 334.735 245.944 334.866C245.944 335.286 246.271 335.496 246.924 335.496H248.254C248.739 335.496 249.178 335.584 249.57 335.762C249.971 335.93 250.284 336.168 250.508 336.476C250.741 336.784 250.858 337.124 250.858 337.498C250.858 338.216 250.55 338.767 249.934 339.15C249.327 339.542 248.464 339.738 247.344 339.738C246.205 339.738 245.403 339.56 244.936 339.206C244.469 338.851 244.236 338.286 244.236 337.512H245.3C245.3 337.82 245.356 338.062 245.468 338.24C245.589 338.426 245.795 338.562 246.084 338.646C246.383 338.739 246.803 338.786 247.344 338.786C248.137 338.786 248.721 338.683 249.094 338.478C249.477 338.272 249.668 337.969 249.668 337.568C249.668 337.232 249.514 336.97 249.206 336.784C248.898 336.606 248.501 336.518 248.016 336.518H246.7C246.093 336.518 245.631 336.387 245.314 336.126C244.997 335.855 244.838 335.519 244.838 335.118C244.838 334.884 244.908 334.656 245.048 334.432C245.188 334.198 245.389 333.998 245.65 333.83C245.23 333.615 244.917 333.344 244.712 333.018C244.516 332.682 244.418 332.276 244.418 331.8C244.418 331.305 244.539 330.866 244.782 330.484C245.034 330.092 245.379 329.788 245.818 329.574C246.266 329.35 246.779 329.238 247.358 329.238C248.198 329.238 248.837 329.191 249.276 329.098C249.715 329.004 250.195 328.846 250.718 328.622L251.068 329.728ZM247.344 330.106C246.775 330.106 246.345 330.26 246.056 330.568C245.767 330.866 245.622 331.277 245.622 331.8C245.622 332.322 245.767 332.742 246.056 333.06C246.355 333.368 246.793 333.522 247.372 333.522C247.895 333.522 248.291 333.372 248.562 333.074C248.842 332.766 248.982 332.336 248.982 331.786C248.982 330.666 248.436 330.106 247.344 330.106ZM254.044 333.494C254.072 334.306 254.282 334.917 254.674 335.328C255.076 335.738 255.58 335.944 256.186 335.944C256.55 335.944 256.882 335.892 257.18 335.79C257.488 335.678 257.815 335.51 258.16 335.286L258.706 336.07C258.361 336.34 257.964 336.55 257.516 336.7C257.078 336.849 256.634 336.924 256.186 336.924C255.122 336.924 254.292 336.578 253.694 335.888C253.106 335.188 252.812 334.254 252.812 333.088C252.812 332.35 252.943 331.692 253.204 331.114C253.466 330.526 253.839 330.068 254.324 329.742C254.81 329.406 255.374 329.238 256.018 329.238C256.952 329.238 257.684 329.564 258.216 330.218C258.758 330.862 259.028 331.744 259.028 332.864C259.028 333.078 259.019 333.288 259 333.494H254.044ZM256.032 330.204C255.463 330.204 255.001 330.409 254.646 330.82C254.292 331.221 254.091 331.814 254.044 332.598H257.88C257.871 331.823 257.703 331.23 257.376 330.82C257.05 330.409 256.602 330.204 256.032 330.204Z" fill="black"/>
<path d="M129.007 41.6277C129.007 42.1037 129.105 42.4537 129.301 42.6777C129.506 42.8923 129.824 42.9997 130.253 42.9997C130.645 42.9997 131.023 42.8877 131.387 42.6637C131.751 42.4397 132.04 42.1597 132.255 41.8237V36.3917H133.431V43.7697H132.423L132.325 42.7757C132.036 43.1397 131.676 43.4243 131.247 43.6297C130.827 43.8257 130.398 43.9237 129.959 43.9237C129.259 43.9237 128.727 43.737 128.363 43.3637C128.008 42.9903 127.831 42.4537 127.831 41.7537V36.3917H129.007V41.6277ZM135.61 43.7697L138.326 39.8777L135.932 36.3917H137.332L139.04 39.1357L140.762 36.3917H142.12L139.726 39.8217L142.442 43.7697H141.014L138.984 40.6057L136.954 43.7697H135.61ZM116.642 50.4237V60.7697H115.606L115.494 59.8037C115.223 60.177 114.911 60.457 114.556 60.6437C114.201 60.8303 113.819 60.9237 113.408 60.9237C112.475 60.9237 111.77 60.583 111.294 59.9017C110.827 59.2203 110.594 58.2823 110.594 57.0877C110.594 56.3503 110.711 55.6923 110.944 55.1137C111.177 54.5257 111.509 54.0683 111.938 53.7417C112.377 53.4057 112.89 53.2377 113.478 53.2377C114.29 53.2377 114.953 53.5317 115.466 54.1197V50.2837L116.642 50.4237ZM113.786 54.1897C113.17 54.1897 112.694 54.4323 112.358 54.9177C112.031 55.403 111.868 56.1263 111.868 57.0877C111.868 58.0397 112.017 58.763 112.316 59.2577C112.624 59.743 113.067 59.9857 113.646 59.9857C114.346 59.9857 114.953 59.5937 115.466 58.8097V55.1417C115.261 54.8337 115.013 54.6003 114.724 54.4417C114.435 54.2737 114.122 54.1897 113.786 54.1897ZM120.374 57.4937C120.402 58.3057 120.612 58.917 121.004 59.3277C121.406 59.7383 121.91 59.9437 122.516 59.9437C122.88 59.9437 123.212 59.8923 123.51 59.7897C123.818 59.6777 124.145 59.5097 124.49 59.2857L125.036 60.0697C124.691 60.3403 124.294 60.5503 123.846 60.6997C123.408 60.849 122.964 60.9237 122.516 60.9237C121.452 60.9237 120.622 60.5783 120.024 59.8877C119.436 59.1877 119.142 58.2543 119.142 57.0877C119.142 56.3503 119.273 55.6923 119.534 55.1137C119.796 54.5257 120.169 54.0683 120.654 53.7417C121.14 53.4057 121.704 53.2377 122.348 53.2377C123.282 53.2377 124.014 53.5643 124.546 54.2177C125.088 54.8617 125.358 55.7437 125.358 56.8637C125.358 57.0783 125.349 57.2883 125.33 57.4937H120.374ZM122.362 54.2037C121.793 54.2037 121.331 54.409 120.976 54.8197C120.622 55.221 120.421 55.8137 120.374 56.5977H124.21C124.201 55.823 124.033 55.2303 123.706 54.8197C123.38 54.409 122.932 54.2037 122.362 54.2037ZM130.351 59.9577C130.911 59.9577 131.354 59.8503 131.681 59.6357C132.008 59.421 132.171 59.1363 132.171 58.7817C132.171 58.539 132.129 58.343 132.045 58.1937C131.961 58.035 131.793 57.895 131.541 57.7737C131.289 57.643 130.906 57.5123 130.393 57.3817C129.534 57.167 128.9 56.9103 128.489 56.6117C128.078 56.3037 127.873 55.851 127.873 55.2537C127.873 54.6377 128.13 54.1477 128.643 53.7837C129.156 53.4197 129.833 53.2377 130.673 53.2377C131.7 53.2377 132.596 53.5083 133.361 54.0497L132.829 54.8617C132.521 54.647 132.199 54.4837 131.863 54.3717C131.527 54.2503 131.14 54.1897 130.701 54.1897C129.637 54.1897 129.105 54.5117 129.105 55.1557C129.105 55.3797 129.161 55.5617 129.273 55.7017C129.394 55.8417 129.586 55.9677 129.847 56.0797C130.118 56.1823 130.519 56.3083 131.051 56.4577C131.854 56.6723 132.451 56.9477 132.843 57.2837C133.244 57.6103 133.445 58.091 133.445 58.7257C133.445 59.463 133.146 60.0137 132.549 60.3777C131.952 60.7417 131.219 60.9237 130.351 60.9237C129.194 60.9237 128.232 60.5923 127.467 59.9297L128.125 59.1597C128.424 59.4023 128.764 59.5983 129.147 59.7477C129.53 59.8877 129.931 59.9577 130.351 59.9577ZM139.026 49.9477C139.287 49.9477 139.497 50.027 139.656 50.1857C139.814 50.335 139.894 50.531 139.894 50.7737C139.894 51.0163 139.814 51.217 139.656 51.3757C139.497 51.525 139.287 51.5997 139.026 51.5997C138.774 51.5997 138.568 51.525 138.41 51.3757C138.26 51.217 138.186 51.0163 138.186 50.7737C138.186 50.531 138.26 50.335 138.41 50.1857C138.568 50.027 138.774 49.9477 139.026 49.9477ZM139.964 59.8317H142.036V60.7697H136.52V59.8317H138.788V54.3297H136.59V53.3917H139.964V59.8317ZM150.976 53.7277C150.696 53.821 150.393 53.8817 150.066 53.9097C149.739 53.9283 149.324 53.9377 148.82 53.9377C149.679 54.3297 150.108 54.9503 150.108 55.7997C150.108 56.5463 149.861 57.153 149.366 57.6197C148.871 58.077 148.195 58.3057 147.336 58.3057C146.897 58.3057 146.529 58.2543 146.23 58.1517C146.118 58.2357 146.025 58.343 145.95 58.4737C145.885 58.6043 145.852 58.735 145.852 58.8657C145.852 59.2857 146.179 59.4957 146.832 59.4957H148.162C148.647 59.4957 149.086 59.5843 149.478 59.7617C149.879 59.9297 150.192 60.1677 150.416 60.4757C150.649 60.7837 150.766 61.1243 150.766 61.4977C150.766 62.2163 150.458 62.767 149.842 63.1497C149.235 63.5417 148.372 63.7377 147.252 63.7377C146.113 63.7377 145.311 63.5603 144.844 63.2057C144.377 62.851 144.144 62.2863 144.144 61.5117H145.208C145.208 61.8197 145.264 62.0623 145.376 62.2397C145.497 62.4263 145.703 62.5617 145.992 62.6457C146.291 62.739 146.711 62.7857 147.252 62.7857C148.045 62.7857 148.629 62.683 149.002 62.4777C149.385 62.2723 149.576 61.969 149.576 61.5677C149.576 61.2317 149.422 60.9703 149.114 60.7837C148.806 60.6063 148.409 60.5177 147.924 60.5177H146.608C146.001 60.5177 145.539 60.387 145.222 60.1257C144.905 59.855 144.746 59.519 144.746 59.1177C144.746 58.8843 144.816 58.6557 144.956 58.4317C145.096 58.1983 145.297 57.9977 145.558 57.8297C145.138 57.615 144.825 57.3443 144.62 57.0177C144.424 56.6817 144.326 56.2757 144.326 55.7997C144.326 55.305 144.447 54.8663 144.69 54.4837C144.942 54.0917 145.287 53.7883 145.726 53.5737C146.174 53.3497 146.687 53.2377 147.266 53.2377C148.106 53.2377 148.745 53.191 149.184 53.0977C149.623 53.0043 150.103 52.8457 150.626 52.6217L150.976 53.7277ZM147.252 54.1057C146.683 54.1057 146.253 54.2597 145.964 54.5677C145.675 54.8663 145.53 55.277 145.53 55.7997C145.53 56.3223 145.675 56.7423 145.964 57.0597C146.263 57.3677 146.701 57.5217 147.28 57.5217C147.803 57.5217 148.199 57.3723 148.47 57.0737C148.75 56.7657 148.89 56.3363 148.89 55.7857C148.89 54.6657 148.344 54.1057 147.252 54.1057ZM153.015 53.3917H154.023L154.121 54.4277C154.41 54.0543 154.774 53.765 155.213 53.5597C155.661 53.345 156.109 53.2377 156.557 53.2377C157.938 53.2377 158.629 53.9657 158.629 55.4217V60.7697H157.453V56.2897C157.453 55.739 157.42 55.319 157.355 55.0297C157.299 54.7403 157.182 54.5257 157.005 54.3857C156.827 54.2457 156.557 54.1757 156.193 54.1757C155.791 54.1757 155.413 54.297 155.059 54.5397C154.704 54.7823 154.415 55.0717 154.191 55.4077V60.7697H153.015V53.3917Z" fill="black"/>
<rect x="356.054" y="2" width="88.7013" height="88.7013" fill="white" stroke="black" stroke-width="3"/>
<path d="M383.654 40.9697C384.251 40.9697 384.765 41.049 385.194 41.2077C385.623 41.357 386.043 41.5903 386.454 41.9077L385.768 42.7057C385.199 42.2297 384.522 41.9917 383.738 41.9917C382.87 41.9917 382.161 42.309 381.61 42.9437C381.069 43.569 380.798 44.5677 380.798 45.9397C380.798 47.3023 381.064 48.301 381.596 48.9357C382.128 49.5703 382.837 49.8877 383.724 49.8877C384.209 49.8877 384.625 49.8177 384.97 49.6777C385.315 49.5377 385.647 49.3417 385.964 49.0897L386.594 49.8737C385.875 50.5737 384.914 50.9237 383.71 50.9237C382.917 50.9237 382.203 50.7323 381.568 50.3497C380.933 49.9577 380.434 49.3883 380.07 48.6417C379.706 47.895 379.524 46.9943 379.524 45.9397C379.524 44.8943 379.706 43.9983 380.07 43.2517C380.443 42.4957 380.943 41.9263 381.568 41.5437C382.203 41.161 382.898 40.9697 383.654 40.9697ZM391.25 43.2377C392.268 43.2377 393.047 43.583 393.588 44.2737C394.139 44.955 394.414 45.8883 394.414 47.0737C394.414 48.231 394.134 49.1643 393.574 49.8737C393.024 50.5737 392.244 50.9237 391.236 50.9237C390.219 50.9237 389.435 50.583 388.884 49.9017C388.334 49.211 388.058 48.273 388.058 47.0877C388.058 45.921 388.334 44.9877 388.884 44.2877C389.444 43.5877 390.233 43.2377 391.25 43.2377ZM391.25 44.2037C390.606 44.2037 390.126 44.4417 389.808 44.9177C389.491 45.3937 389.332 46.117 389.332 47.0877C389.332 48.0583 389.486 48.7817 389.794 49.2577C390.112 49.7243 390.592 49.9577 391.236 49.9577C391.88 49.9577 392.356 49.7243 392.664 49.2577C392.982 48.7817 393.14 48.0537 393.14 47.0737C393.14 46.103 392.982 45.3843 392.664 44.9177C392.356 44.4417 391.885 44.2037 391.25 44.2037ZM402.431 40.4237V50.7697H401.395L401.283 49.8037C401.012 50.177 400.7 50.457 400.345 50.6437C399.99 50.8303 399.608 50.9237 399.197 50.9237C398.264 50.9237 397.559 50.583 397.083 49.9017C396.616 49.2203 396.383 48.2823 396.383 47.0877C396.383 46.3503 396.5 45.6923 396.733 45.1137C396.966 44.5257 397.298 44.0683 397.727 43.7417C398.166 43.4057 398.679 43.2377 399.267 43.2377C400.079 43.2377 400.742 43.5317 401.255 44.1197V40.2837L402.431 40.4237ZM399.575 44.1897C398.959 44.1897 398.483 44.4323 398.147 44.9177C397.82 45.403 397.657 46.1263 397.657 47.0877C397.657 48.0397 397.806 48.763 398.105 49.2577C398.413 49.743 398.856 49.9857 399.435 49.9857C400.135 49.9857 400.742 49.5937 401.255 48.8097V45.1417C401.05 44.8337 400.802 44.6003 400.513 44.4417C400.224 44.2737 399.911 44.1897 399.575 44.1897ZM408.026 39.9477C408.287 39.9477 408.497 40.027 408.656 40.1857C408.814 40.335 408.894 40.531 408.894 40.7737C408.894 41.0163 408.814 41.217 408.656 41.3757C408.497 41.525 408.287 41.5997 408.026 41.5997C407.774 41.5997 407.568 41.525 407.41 41.3757C407.26 41.217 407.186 41.0163 407.186 40.7737C407.186 40.531 407.26 40.335 407.41 40.1857C407.568 40.027 407.774 39.9477 408.026 39.9477ZM408.964 49.8317H411.036V50.7697H405.52V49.8317H407.788V44.3297H405.59V43.3917H408.964V49.8317ZM413.62 43.3917H414.628L414.726 44.4277C415.015 44.0543 415.379 43.765 415.818 43.5597C416.266 43.345 416.714 43.2377 417.162 43.2377C418.543 43.2377 419.234 43.9657 419.234 45.4217V50.7697H418.058V46.2897C418.058 45.739 418.025 45.319 417.96 45.0297C417.904 44.7403 417.787 44.5257 417.61 44.3857C417.433 44.2457 417.162 44.1757 416.798 44.1757C416.397 44.1757 416.019 44.297 415.664 44.5397C415.309 44.7823 415.02 45.0717 414.796 45.4077V50.7697H413.62V43.3917ZM428.371 43.7277C428.091 43.821 427.787 43.8817 427.461 43.9097C427.134 43.9283 426.719 43.9377 426.215 43.9377C427.073 44.3297 427.503 44.9503 427.503 45.7997C427.503 46.5463 427.255 47.153 426.761 47.6197C426.266 48.077 425.589 48.3057 424.731 48.3057C424.292 48.3057 423.923 48.2543 423.625 48.1517C423.513 48.2357 423.419 48.343 423.345 48.4737C423.279 48.6043 423.247 48.735 423.247 48.8657C423.247 49.2857 423.573 49.4957 424.227 49.4957H425.557C426.042 49.4957 426.481 49.5843 426.873 49.7617C427.274 49.9297 427.587 50.1677 427.811 50.4757C428.044 50.7837 428.161 51.1243 428.161 51.4977C428.161 52.2163 427.853 52.767 427.237 53.1497C426.63 53.5417 425.767 53.7377 424.647 53.7377C423.508 53.7377 422.705 53.5603 422.239 53.2057C421.772 52.851 421.539 52.2863 421.539 51.5117H422.603C422.603 51.8197 422.659 52.0623 422.771 52.2397C422.892 52.4263 423.097 52.5617 423.387 52.6457C423.685 52.739 424.105 52.7857 424.647 52.7857C425.44 52.7857 426.023 52.683 426.397 52.4777C426.779 52.2723 426.971 51.969 426.971 51.5677C426.971 51.2317 426.817 50.9703 426.509 50.7837C426.201 50.6063 425.804 50.5177 425.319 50.5177H424.003C423.396 50.5177 422.934 50.387 422.617 50.1257C422.299 49.855 422.141 49.519 422.141 49.1177C422.141 48.8843 422.211 48.6557 422.351 48.4317C422.491 48.1983 422.691 47.9977 422.953 47.8297C422.533 47.615 422.22 47.3443 422.015 47.0177C421.819 46.6817 421.721 46.2757 421.721 45.7997C421.721 45.305 421.842 44.8663 422.085 44.4837C422.337 44.0917 422.682 43.7883 423.121 43.5737C423.569 43.3497 424.082 43.2377 424.661 43.2377C425.501 43.2377 426.14 43.191 426.579 43.0977C427.017 43.0043 427.498 42.8457 428.021 42.6217L428.371 43.7277ZM424.647 44.1057C424.077 44.1057 423.648 44.2597 423.359 44.5677C423.069 44.8663 422.925 45.277 422.925 45.7997C422.925 46.3223 423.069 46.7423 423.359 47.0597C423.657 47.3677 424.096 47.5217 424.675 47.5217C425.197 47.5217 425.594 47.3723 425.865 47.0737C426.145 46.7657 426.285 46.3363 426.285 45.7857C426.285 44.6657 425.739 44.1057 424.647 44.1057Z" fill="black"/>
</svg>
