<svg width="36" height="36" viewBox="0 0 36 36" fill="none" xmlns="http://www.w3.org/2000/svg">
    <path
        d="M34.592 0.400024H2.20799C1.42919 0.400024 0.799988 1.02922 0.799988 1.80802V34.192C0.799988 34.9708 1.42919 35.6 2.20799 35.6H34.592C35.3708 35.6 36 34.9708 36 34.192V1.80802C36 1.02922 35.3708 0.400024 34.592 0.400024ZM22.206 10.9116H28.2956V12.3944H22.206V10.9116ZM18.4 23.1392C18.1152 23.6799 17.7084 24.1469 17.212 24.5032C16.6928 24.864 16.1164 25.128 15.5048 25.282C14.8649 25.4535 14.2048 25.5379 13.5424 25.5328H6.25599V10.5244H13.34C14.0572 10.5244 14.7084 10.5904 15.3024 10.7136C15.892 10.8368 16.3936 11.048 16.816 11.334C17.234 11.62 17.564 12.0028 17.7972 12.478C18.026 12.9488 18.1448 13.5384 18.1448 14.238C18.1448 14.9948 17.9732 15.6196 17.63 16.1256C17.2824 16.6316 16.7808 17.0408 16.0988 17.362C17.0272 17.626 17.7092 18.0968 18.158 18.7568C18.6156 19.4256 18.84 20.2264 18.84 21.168C18.84 21.9336 18.6948 22.5892 18.4 23.1392ZM30.6672 20.816H22.8176C22.8176 21.6696 23.1124 22.488 23.5568 22.928C24.0056 23.3636 24.648 23.5836 25.4884 23.5836C26.0956 23.5836 26.6104 23.4296 27.0504 23.126C27.486 22.8224 27.75 22.5012 27.8468 22.1668H30.478C30.0556 23.4736 29.4132 24.4064 28.542 24.9696C27.6796 25.5328 26.6236 25.8144 25.396 25.8144C24.538 25.8144 23.768 25.6736 23.0772 25.4052C22.4128 25.1456 21.8144 24.7496 21.3216 24.2392C20.8357 23.7151 20.4601 23.0986 20.2172 22.4264C19.9488 21.6828 19.8168 20.8996 19.8256 20.112C19.8256 19.298 19.962 18.5412 20.226 17.8372C20.732 16.4688 21.7836 15.3732 23.1256 14.8056C23.8428 14.5064 24.6128 14.3568 25.3916 14.3656C26.3156 14.3656 27.1164 14.5416 27.8116 14.9024C28.4809 15.247 29.062 15.7407 29.51 16.3456C29.9544 16.9484 30.2668 17.6348 30.4648 18.4092C30.654 19.1704 30.72 19.9712 30.6672 20.816ZM25.2992 16.6096C24.824 16.6096 24.4236 16.6932 24.1156 16.856C23.8076 17.0188 23.5524 17.2212 23.3588 17.4544C23.1744 17.6796 23.0381 17.9401 22.9584 18.22C22.888 18.4532 22.8396 18.6908 22.822 18.9328H27.684C27.6136 18.1716 27.3496 17.6084 26.9976 17.2124C26.628 16.8208 26.034 16.6096 25.2992 16.6096ZM14.3652 16.1652C14.748 15.888 14.9328 15.4304 14.9328 14.8012C14.946 14.502 14.8844 14.2072 14.7524 13.9388C14.6336 13.7232 14.4576 13.5428 14.242 13.4152C14.0184 13.2797 13.7702 13.1899 13.5116 13.1512C13.23 13.0984 12.944 13.072 12.6624 13.0764H9.56919V16.5832H12.9176C13.494 16.5876 13.9824 16.4468 14.3652 16.1652ZM14.8844 19.3332C14.4532 19.0032 13.8768 18.8404 13.1596 18.8404H9.56039V22.9764H13.0892C13.4192 22.9764 13.7228 22.9456 14.0176 22.884C14.3124 22.8224 14.5764 22.7168 14.8008 22.5672C15.0252 22.422 15.2056 22.224 15.342 21.9688C15.474 21.7136 15.54 21.388 15.54 20.9964C15.54 20.2176 15.32 19.6676 14.8844 19.3332Z"
        fill="black" />
</svg>